<svg xmlns="http://www.w3.org/2000/svg" width="331.965" height="43.623" viewBox="0 0 331.965 43.623">
  <g id="Group_18" data-name="Group 18" transform="translate(-130.283 -130.485)">
    <rect id="Rectangle_58" data-name="Rectangle 58" width="12.714" height="12.714" transform="translate(227.538 152.296)" fill="#009e3d"/>
    <path id="Path_205" data-name="Path 205" d="M198.1,143.827l-10.85,10.852a6.384,6.384,0,0,1-6.877,1.4l-.056-.023-.041-.016a6.424,6.424,0,0,1-3.372-3.372l-.02-.046-.021-.052a6.419,6.419,0,0,1,0-4.761l.025-.057.018-.044a6.38,6.38,0,0,1,5.85-3.876Z" transform="translate(29.438 8.469)" fill="#009e3d" fill-rule="evenodd"/>
    <path id="Path_206" data-name="Path 206" d="M201.851,134.445l.031.074.011.026a6.369,6.369,0,0,1-1.381,6.879l-10.865,10.855V136.932a6.375,6.375,0,0,1,3.87-5.845l.077-.034.021-.007a6.41,6.41,0,0,1,4.779,0l.02.007.079.034a6.41,6.41,0,0,1,3.358,3.358" transform="translate(37.89 0.017)" fill="#85c226" fill-rule="evenodd"/>
    <path id="Path_207" data-name="Path 207" d="M206.4,150.183h0a6.375,6.375,0,0,1-6.356,6.356h-2.633V143.827h2.633a6.375,6.375,0,0,1,6.356,6.356" transform="translate(42.844 8.469)" fill="#08a870" fill-rule="evenodd"/>
    <path id="Path_208" data-name="Path 208" d="M176.71,155.96a6.32,6.32,0,0,1,1.355-2.015l21.7-21.7a6.267,6.267,0,0,1,2.007-1.352,6.375,6.375,0,0,0-3.87,5.845v15.347H182.56a6.38,6.38,0,0,0-5.85,3.876" transform="translate(29.632 0.213)" fill="#33ab36" fill-rule="evenodd"/>
    <path id="Path_209" data-name="Path 209" d="M202.363,151.587v2.634a6.357,6.357,0,0,1-12.715,0v-2.634Z" transform="translate(37.89 13.422)" fill="#9ecc17" fill-rule="evenodd"/>
    <path id="Path_210" data-name="Path 210" d="M202.363,134.509v15.265H189.648l10.86-10.852a6.33,6.33,0,0,0,1.854-4.413" transform="translate(37.89 2.522)" fill="#9ecc17" fill-rule="evenodd"/>
    <path id="Path_211" data-name="Path 211" d="M196.555,156.54H181.207a6.3,6.3,0,0,1-2.38-.465,6.382,6.382,0,0,0,6.876-1.4l10.852-10.852Z" transform="translate(30.984 8.469)" fill="#08a870" fill-rule="evenodd"/>
    <path id="Path_212" data-name="Path 212" d="M211.527,130.579h0a6.375,6.375,0,0,1,6.356,6.356V167.63a6.357,6.357,0,0,1-12.715,0V136.935a6.375,6.375,0,0,1,6.358-6.356" transform="translate(47.797 0.014)" fill="#9ecc17" fill-rule="evenodd"/>
    <path id="Path_213" data-name="Path 213" d="M187.936,130.579a6.357,6.357,0,0,1,0,12.715h-6.358V167.63a6.356,6.356,0,0,1-12.713,0V143.294h-6.358a6.357,6.357,0,0,1,0-12.715Z" transform="translate(16.51 0.014)" fill="#c2c2c2" fill-rule="evenodd"/>
    <path id="Path_214" data-name="Path 214" d="M187.936,130.579a6.357,6.357,0,0,1,0,12.715h-6.358V167.63a6.356,6.356,0,0,1-12.713,0V143.294h-6.358a6.357,6.357,0,0,1,0-12.715Z" transform="translate(16.51 0.014)" fill="none" stroke="#c2c2c2" stroke-miterlimit="2.613" stroke-width="0.216"/>
    <path id="Path_215" data-name="Path 215" d="M141.793,133.15l13.974,16.868V137.283a6.317,6.317,0,0,1,.044-1.15,6.362,6.362,0,0,1,12.67.816v30.206a6.353,6.353,0,0,1-11.23,4.581l-14.2-17.136v13.014a6.427,6.427,0,0,1-7.172,6.334,6.357,6.357,0,0,1-5.541-6.384V137.747a6.339,6.339,0,0,1,5.529-7.151,6.535,6.535,0,0,1,5.924,2.554" fill="#c2c2c2" fill-rule="evenodd"/>
    <path id="Path_216" data-name="Path 216" d="M337.352,152.9a10.876,10.876,0,0,0,.274,2.459,7.84,7.84,0,0,0,.793,2.054,6.714,6.714,0,0,0,1.3,1.637v0a7.373,7.373,0,0,0,1.787,1.211h0a9.516,9.516,0,0,0,2.29.754,14.875,14.875,0,0,0,5.526,0,9.592,9.592,0,0,0,2.276-.754h0a7.439,7.439,0,0,0,1.784-1.212h0a6.734,6.734,0,0,0,1.291-1.635h0a7.844,7.844,0,0,0,.79-2.058,10.777,10.777,0,0,0,.272-2.457h0v-8.177h0a10.767,10.767,0,0,0-.272-2.457,7.844,7.844,0,0,0-.79-2.058h0a6.734,6.734,0,0,0-1.291-1.635h0a7.455,7.455,0,0,0-1.786-1.214,9.434,9.434,0,0,0-2.274-.754,14.856,14.856,0,0,0-5.531,0v0a9.439,9.439,0,0,0-2.284.754,7.42,7.42,0,0,0-1.789,1.212v0a6.713,6.713,0,0,0-1.3,1.637,7.818,7.818,0,0,0-.793,2.054,10.865,10.865,0,0,0-.274,2.459h0V152.9Zm16.527,0a8.581,8.581,0,0,1-.21,1.946,6.244,6.244,0,0,1-.634,1.663l0,0a5.454,5.454,0,0,1-1.058,1.335,5.857,5.857,0,0,1-1.443.968v0a7.653,7.653,0,0,1-1.812.585,11.6,11.6,0,0,1-2.159.2h0a11.6,11.6,0,0,1-2.158-.2,7.769,7.769,0,0,1-1.817-.583,5.9,5.9,0,0,1-1.453-.967,5.482,5.482,0,0,1-1.068-1.335,6.171,6.171,0,0,1-.644-1.66,8.534,8.534,0,0,1-.213-1.953v-8.177a8.535,8.535,0,0,1,.213-1.953,6.15,6.15,0,0,1,.644-1.66h0a5.447,5.447,0,0,1,1.065-1.334,5.875,5.875,0,0,1,1.456-.968,7.665,7.665,0,0,1,1.825-.586,11.974,11.974,0,0,1,4.3,0,7.624,7.624,0,0,1,1.82.588,5.871,5.871,0,0,1,1.448.968,5.359,5.359,0,0,1,1.053,1.335h0a6.3,6.3,0,0,1,.634,1.661,8.6,8.6,0,0,1,.21,1.948Zm-23.7,7.525a.8.8,0,0,0,.021.233h0a.179.179,0,0,0,.036.075.172.172,0,0,0,.072.036h0a.942.942,0,0,0,.234.023l.007,0H331.7l.007,0a.851.851,0,0,0,.224-.023.147.147,0,0,0,.057-.025.215.215,0,0,0,.029-.075.958.958,0,0,0,.021-.244l0-.007V137.208l0-.007a.959.959,0,0,0-.021-.244.215.215,0,0,0-.029-.075.147.147,0,0,0-.057-.025.788.788,0,0,0-.224-.023l-.007,0h-1.144l-.007,0a.87.87,0,0,0-.234.023h0a.155.155,0,0,0-.072.036.17.17,0,0,0-.036.074.817.817,0,0,0-.021.234v23.226Zm-20.7-23.593a.856.856,0,0,0-.234.023h0a.155.155,0,0,0-.072.036.175.175,0,0,0-.036.07v0a.875.875,0,0,0-.021.234v.985a.791.791,0,0,0,.021.231v0a.25.25,0,0,0,.036.075.158.158,0,0,0,.07.031h0a.98.98,0,0,0,.244.025h7.32v21.877a.794.794,0,0,0,.021.233.17.17,0,0,0,.036.075.172.172,0,0,0,.072.036h0a.941.941,0,0,0,.234.023l.007,0h1.143l.007,0a.941.941,0,0,0,.234-.023h0a.192.192,0,0,0,.074-.036.17.17,0,0,0,.034-.075.85.85,0,0,0,.023-.233l0-.007V138.55h7.32a.981.981,0,0,0,.244-.025h0a.167.167,0,0,0,.07-.031.226.226,0,0,0,.036-.077v0a.9.9,0,0,0,.023-.231l0-.007v-.97l0-.007a.868.868,0,0,0-.023-.234.169.169,0,0,0-.036-.074.163.163,0,0,0-.072-.036h0a.87.87,0,0,0-.234-.023l-.007,0H309.489Zm-20.062.367a.871.871,0,0,0-.023-.234v0a.156.156,0,0,0-.034-.07.169.169,0,0,0-.075-.036.87.87,0,0,0-.234-.023l-.007,0H287.9l0,0a.855.855,0,0,0-.234.023.161.161,0,0,0-.075.036.174.174,0,0,0-.036.07v0a.875.875,0,0,0-.021.234v15.527h0a11.635,11.635,0,0,0,.264,2.523,8.254,8.254,0,0,0,.765,2.1v0a6.891,6.891,0,0,0,1.26,1.683,7.149,7.149,0,0,0,1.746,1.243,8.859,8.859,0,0,0,2.236.772,14.09,14.09,0,0,0,5.46,0,8.82,8.82,0,0,0,2.231-.772h0a7.152,7.152,0,0,0,1.743-1.242,6.864,6.864,0,0,0,1.261-1.684v0a8.29,8.29,0,0,0,.77-2.105,11.5,11.5,0,0,0,.259-2.513V137.2a.878.878,0,0,0-.021-.234v0a.142.142,0,0,0-.036-.07.161.161,0,0,0-.075-.036.851.851,0,0,0-.233-.023l-.007,0h-1.143l-.008,0a.832.832,0,0,0-.229.023h0a.206.206,0,0,0-.074.036.141.141,0,0,0-.033.069,1.007,1.007,0,0,0-.025.246v15.555a9.428,9.428,0,0,1-.2,1.982,6.621,6.621,0,0,1-.608,1.689h0a5.33,5.33,0,0,1-1.009,1.36,5.625,5.625,0,0,1-1.4.994h0a7.007,7.007,0,0,1-1.766.6,10.817,10.817,0,0,1-2.125.2h0a10.637,10.637,0,0,1-2.118-.2,7,7,0,0,1-1.774-.6h0a5.625,5.625,0,0,1-1.4-.994,5.287,5.287,0,0,1-1.008-1.36h0a6.559,6.559,0,0,1-.606-1.689,9.321,9.321,0,0,1-.2-1.982V137.208Zm-18.707-.367a.871.871,0,0,0-.234.023h0a.171.171,0,0,0-.074.036.192.192,0,0,0-.034.074.815.815,0,0,0-.021.234v23.226a.866.866,0,0,0,.02.233h0a.2.2,0,0,0,.034.075.192.192,0,0,0,.074.036h0a.942.942,0,0,0,.234.023l.007,0h13.547a.574.574,0,0,0,.187-.026h0a.124.124,0,0,0,.065-.039l.012-.015a.2.2,0,0,0,.047-.088.657.657,0,0,0,.026-.2v-.97a.639.639,0,0,0-.026-.2v0a.212.212,0,0,0-.047-.09l-.012-.015a.135.135,0,0,0-.065-.039h0a.58.58,0,0,0-.187-.025H272.2V137.208l0-.007a.955.955,0,0,0-.021-.244.215.215,0,0,0-.029-.075.16.16,0,0,0-.057-.025.781.781,0,0,0-.224-.023l-.007,0h-1.143ZM246.65,152.9a10.786,10.786,0,0,0,.275,2.459,7.785,7.785,0,0,0,.793,2.054,6.748,6.748,0,0,0,1.294,1.637v0a7.416,7.416,0,0,0,1.789,1.211h0a9.528,9.528,0,0,0,2.289.754,14.875,14.875,0,0,0,5.526,0,9.581,9.581,0,0,0,2.277-.754h0a7.473,7.473,0,0,0,1.784-1.212h0a6.78,6.78,0,0,0,1.293-1.635h0a7.851,7.851,0,0,0,.791-2.058,10.777,10.777,0,0,0,.272-2.457h0v-8.177h0a10.767,10.767,0,0,0-.272-2.457,7.851,7.851,0,0,0-.791-2.058h0a6.781,6.781,0,0,0-1.293-1.635h0a7.489,7.489,0,0,0-1.786-1.214,9.447,9.447,0,0,0-2.276-.754,14.856,14.856,0,0,0-5.531,0v0a9.428,9.428,0,0,0-2.282.754,7.4,7.4,0,0,0-1.791,1.212v0a6.747,6.747,0,0,0-1.294,1.637,7.763,7.763,0,0,0-.793,2.054,10.775,10.775,0,0,0-.275,2.459h0V152.9Zm16.528,0a8.581,8.581,0,0,1-.21,1.946,6.3,6.3,0,0,1-.636,1.663v0a5.453,5.453,0,0,1-1.058,1.335,5.857,5.857,0,0,1-1.443.968l0,0a7.63,7.63,0,0,1-1.812.585,11.572,11.572,0,0,1-2.158.2h0a11.617,11.617,0,0,1-2.159-.2,7.755,7.755,0,0,1-1.815-.583,5.9,5.9,0,0,1-1.453-.967,5.443,5.443,0,0,1-1.068-1.335,6.117,6.117,0,0,1-.644-1.66,8.442,8.442,0,0,1-.213-1.953v-8.177a8.442,8.442,0,0,1,.213-1.953,6.1,6.1,0,0,1,.644-1.66h0a5.439,5.439,0,0,1,1.063-1.334,5.886,5.886,0,0,1,1.458-.968,7.652,7.652,0,0,1,1.823-.586,11.974,11.974,0,0,1,4.3,0,7.638,7.638,0,0,1,1.822.588,5.831,5.831,0,0,1,1.447.968,5.4,5.4,0,0,1,1.055,1.335h0a6.359,6.359,0,0,1,.636,1.661,8.6,8.6,0,0,1,.21,1.948ZM225,143.131v0a8.413,8.413,0,0,0,.067,1,6.29,6.29,0,0,0,.187.893,6.531,6.531,0,0,0,.288.8,5.518,5.518,0,0,0,.367.69h0a5.608,5.608,0,0,0,.437.582,4,4,0,0,0,.477.469l.007,0a4.6,4.6,0,0,0,.873.583,8.374,8.374,0,0,0,1.2.5h0l.67.216c.229.072.436.133.614.183h0c.192.056.378.1.555.146s.346.077.495.1v0l.537.084h0l.621.09c.208.029.441.061.693.09.269.031.521.057.763.082h0l.785.082h0l.682.08h0c.223.031.436.062.627.1s.4.072.6.118v0c.188.041.388.088.6.144h0c.2.052.411.115.641.188v0a6.272,6.272,0,0,1,.883.351,4.474,4.474,0,0,1,.744.459v0a3.31,3.31,0,0,1,1.047,1.314,4.53,4.53,0,0,1,.283.875,6.727,6.727,0,0,1,.143,1.032l0,.02a5.22,5.22,0,0,1-.462,2.256,4.166,4.166,0,0,1-1.4,1.638,6.385,6.385,0,0,1-2.264.965,13.663,13.663,0,0,1-3.095.313,9.624,9.624,0,0,1-2.425-.292,7.105,7.105,0,0,1-2.038-.88,6.783,6.783,0,0,1-1.628-1.478,8.638,8.638,0,0,1-1.2-2.04l0-.007a.712.712,0,0,0-.116-.172.332.332,0,0,0-.108-.082h0a.261.261,0,0,0-.108-.023.492.492,0,0,0-.164.033l0,0-1.068.378a.42.42,0,0,0-.236.192l0,0a.5.5,0,0,0,.01.341,11.812,11.812,0,0,0,.886,1.782,9.012,9.012,0,0,0,1.1,1.447,7.269,7.269,0,0,0,1.332,1.1,7.686,7.686,0,0,0,1.6.78l0,0a10.055,10.055,0,0,0,1.91.47,15.121,15.121,0,0,0,2.254.157h0a16.778,16.778,0,0,0,2.764-.216,10.631,10.631,0,0,0,2.272-.631h0a7.335,7.335,0,0,0,1.766-1.006,5.792,5.792,0,0,0,1.27-1.358,5.857,5.857,0,0,0,.77-1.7,7.721,7.721,0,0,0,.262-2.04v0a7.994,7.994,0,0,0-.062-.971,6.281,6.281,0,0,0-.18-.88l0,0a6.206,6.206,0,0,0-.27-.8h0a5.122,5.122,0,0,0-.349-.69v0a5.392,5.392,0,0,0-.414-.59,3.938,3.938,0,0,0-.446-.469,4.777,4.777,0,0,0-.39-.3h0c-.139-.1-.288-.193-.447-.283s-.334-.179-.514-.259h0c-.188-.084-.385-.165-.588-.238h0c-.208-.077-.41-.147-.6-.208s-.382-.121-.557-.172h0c-.19-.054-.369-.1-.534-.139h0c-.184-.043-.362-.08-.534-.115s-.37-.069-.554-.1-.393-.059-.593-.084h0q-.6-.086-1.366-.174h0c-.586-.056-1.1-.115-1.547-.174h0c-.216-.031-.436-.067-.654-.108s-.429-.084-.621-.128l0,0c-.2-.048-.413-.1-.619-.161h0c-.213-.059-.437-.128-.665-.2a6.979,6.979,0,0,1-.957-.346v0a4.9,4.9,0,0,1-.8-.46,3.536,3.536,0,0,1-.652-.6,3.471,3.471,0,0,1-.478-.737,4.192,4.192,0,0,1-.3-.885,6.108,6.108,0,0,1-.147-1.035v-.021a4.786,4.786,0,0,1,.446-2.094,4.12,4.12,0,0,1,1.325-1.553v0a6.08,6.08,0,0,1,2.107-.934,11.846,11.846,0,0,1,2.816-.31v0a11.79,11.79,0,0,1,1.64.11,7.925,7.925,0,0,1,1.433.334v0a6.281,6.281,0,0,1,1.238.57,5.8,5.8,0,0,1,1.062.821,7.422,7.422,0,0,1,.9,1.063,9.575,9.575,0,0,1,.755,1.279,1.2,1.2,0,0,0,.146.2h0c.023.025.039.041.046.041l.01,0a.259.259,0,0,0,.088,0h0a.891.891,0,0,0,.206-.064l1.068-.483h0a.752.752,0,0,0,.195-.121h0a.336.336,0,0,0,.084-.1.194.194,0,0,0,.007-.077.415.415,0,0,0-.054-.154l-.007-.011a11.885,11.885,0,0,0-.949-1.642h0a8.609,8.609,0,0,0-1.1-1.3,6.98,6.98,0,0,0-1.291-.98,7.765,7.765,0,0,0-1.525-.69h0a10.355,10.355,0,0,0-1.822-.411,15.376,15.376,0,0,0-2.138-.134,14.679,14.679,0,0,0-2.564.219,9.588,9.588,0,0,0-2.136.632h0a7.243,7.243,0,0,0-1.684,1,5.885,5.885,0,0,0-1.224,1.338,5.774,5.774,0,0,0-.752,1.642A7.294,7.294,0,0,0,225,143.131Zm159.285,0v0a7.765,7.765,0,0,0,.067,1,6.065,6.065,0,0,0,.185.893,6.536,6.536,0,0,0,.288.8,5.328,5.328,0,0,0,.369.69h0a5.613,5.613,0,0,0,.437.582,4,4,0,0,0,.477.469l.007,0a4.513,4.513,0,0,0,.875.583,8.3,8.3,0,0,0,1.2.5h0l.668.216c.229.072.436.133.614.183h0c.192.056.378.1.555.146s.346.077.495.1v0l.536.084h0l.622.09c.208.029.439.061.693.09s.519.057.763.082h0l.786.082h0l.681.08h0c.223.031.436.062.627.1s.4.072.6.118v0c.188.041.388.088.6.144h0c.2.052.411.115.641.188v0a6.2,6.2,0,0,1,.883.351,4.475,4.475,0,0,1,.744.459v0a3.309,3.309,0,0,1,1.047,1.314,4.525,4.525,0,0,1,.285.875,6.95,6.95,0,0,1,.141,1.032l0,.02a5.219,5.219,0,0,1-.462,2.256,4.166,4.166,0,0,1-1.4,1.638,6.388,6.388,0,0,1-2.262.965,13.677,13.677,0,0,1-3.1.313,9.623,9.623,0,0,1-2.425-.292,7.106,7.106,0,0,1-2.038-.88,6.814,6.814,0,0,1-1.628-1.478,8.7,8.7,0,0,1-1.2-2.04l0-.007a.762.762,0,0,0-.115-.172.355.355,0,0,0-.11-.082h0a.261.261,0,0,0-.108-.023.485.485,0,0,0-.164.033l0,0-1.068.378a.426.426,0,0,0-.236.192v0a.522.522,0,0,0,.011.341,11.671,11.671,0,0,0,.888,1.782,8.91,8.91,0,0,0,1.1,1.447,7.279,7.279,0,0,0,1.333,1.1,7.634,7.634,0,0,0,1.6.78l0,0a10.088,10.088,0,0,0,1.91.47,15.121,15.121,0,0,0,2.254.157h0a16.792,16.792,0,0,0,2.764-.216,10.632,10.632,0,0,0,2.272-.631h0a7.336,7.336,0,0,0,1.766-1.006,5.79,5.79,0,0,0,1.27-1.358,5.856,5.856,0,0,0,.77-1.7,7.72,7.72,0,0,0,.262-2.04v0a7.982,7.982,0,0,0-.062-.971,6.29,6.29,0,0,0-.18-.88l0,0a6.2,6.2,0,0,0-.27-.8h0a5.126,5.126,0,0,0-.349-.69l0,0a5.174,5.174,0,0,0-.413-.59,3.94,3.94,0,0,0-.446-.469,4.788,4.788,0,0,0-.39-.3h0c-.139-.1-.288-.193-.447-.283s-.334-.179-.514-.259h0c-.188-.084-.385-.165-.588-.238h0c-.21-.077-.41-.147-.6-.208s-.382-.121-.557-.172h0c-.19-.054-.37-.1-.534-.139h0c-.183-.043-.362-.08-.534-.115s-.37-.069-.554-.1-.393-.059-.593-.084h0q-.6-.086-1.366-.174h0c-.586-.056-1.1-.115-1.548-.174h0c-.216-.031-.436-.067-.654-.108s-.428-.084-.621-.128l0,0c-.2-.048-.413-.1-.621-.161h0c-.213-.059-.437-.128-.665-.2a6.981,6.981,0,0,1-.957-.346v0a4.9,4.9,0,0,1-.8-.46,3.538,3.538,0,0,1-.652-.6,3.472,3.472,0,0,1-.478-.737,4.19,4.19,0,0,1-.3-.885,6.276,6.276,0,0,1-.147-1.035v-.021a4.809,4.809,0,0,1,.446-2.094,4.11,4.11,0,0,1,1.327-1.553l0,0a6.08,6.08,0,0,1,2.107-.934,11.835,11.835,0,0,1,2.816-.31v0a11.789,11.789,0,0,1,1.64.11,7.925,7.925,0,0,1,1.433.334v0a6.238,6.238,0,0,1,1.239.57,5.87,5.87,0,0,1,1.063.821,7.633,7.633,0,0,1,.9,1.063,9.755,9.755,0,0,1,.757,1.279,1.117,1.117,0,0,0,.144.2h0c.026.025.043.041.049.041l.008,0a.259.259,0,0,0,.088,0h0a.907.907,0,0,0,.2-.064l1.068-.483h0a.753.753,0,0,0,.195-.121h0a.334.334,0,0,0,.084-.1.194.194,0,0,0,.007-.077.446.446,0,0,0-.054-.154l-.007-.011a11.885,11.885,0,0,0-.949-1.642h0a8.708,8.708,0,0,0-1.1-1.3,6.94,6.94,0,0,0-1.293-.98,7.667,7.667,0,0,0-1.524-.69h0a10.355,10.355,0,0,0-1.822-.411,15.375,15.375,0,0,0-2.138-.134,14.679,14.679,0,0,0-2.564.219,9.572,9.572,0,0,0-2.135.632h0a7.242,7.242,0,0,0-1.684,1,5.885,5.885,0,0,0-1.224,1.338,5.728,5.728,0,0,0-.75,1.642A7.165,7.165,0,0,0,384.282,143.131Zm-6.784-6.294a.724.724,0,0,0-.2.026h0a.217.217,0,0,0-.089.048l0,0a.189.189,0,0,0-.048.079.556.556,0,0,0-.026.182v14.032c0,.238,0,.485.011.742v5.506l-4.453-6.422L363,137.05h0a.585.585,0,0,0-.088-.1.572.572,0,0,0-.088-.061.674.674,0,0,0-.134-.039h0a.748.748,0,0,0-.156-.015h-1.107l-.007,0a.942.942,0,0,0-.234.023h0a.148.148,0,0,0-.072.036.153.153,0,0,0-.034.075.79.79,0,0,0-.023.233l0,.007v23.212l0,.007a.851.851,0,0,0,.021.233h0a.161.161,0,0,0,.034.075.183.183,0,0,0,.072.036h0a.942.942,0,0,0,.234.023l.007,0H362.5a.573.573,0,0,0,.187-.026h0a.127.127,0,0,0,.066-.039l.011-.015a.232.232,0,0,0,.048-.088.718.718,0,0,0,.025-.2V140.18l2.978,4.294,0,0,.011.018.126.192,1.8,2.587.824,1.188,0,0L377,160.55l.013.023a.418.418,0,0,0,.07.09.6.6,0,0,0,.093.07.53.53,0,0,0,.118.043h0a.812.812,0,0,0,.167.016h1.109l.007,0a.927.927,0,0,0,.233-.023h0a.183.183,0,0,0,.072-.036.169.169,0,0,0,.036-.075.85.85,0,0,0,.023-.233l0-.007V137.208l0-.007a.943.943,0,0,0-.023-.234v0a.154.154,0,0,0-.036-.072.148.148,0,0,0-.072-.036h0a.927.927,0,0,0-.233-.023l-.007,0Z" transform="translate(60.177 3.697)" fill="#aba8a8"/>
  </g>
</svg>
