<?xml version="1.0" encoding="UTF-8" standalone="no"?>
<svg
   xmlns:dc="http://purl.org/dc/elements/1.1/"
   xmlns:cc="http://creativecommons.org/ns#"
   xmlns:rdf="http://www.w3.org/1999/02/22-rdf-syntax-ns#"
   xmlns:svg="http://www.w3.org/2000/svg"
   xmlns="http://www.w3.org/2000/svg"
   xmlns:sodipodi="http://sodipodi.sourceforge.net/DTD/sodipodi-0.dtd"
   xmlns:inkscape="http://www.inkscape.org/namespaces/inkscape"
   x="0px"
   y="0px"
   width="20px"
   height="20px"
   viewbox="0 0 475.084 475.085"
   xml:space="preserve"
   id="svg3069"
   version="1.1"
   inkscape:version="0.48.5 r10040"
   sodipodi:docname="cart.svg"><metadata
     id="metadata3083"><rdf:RDF><cc:Work
         rdf:about=""><dc:format>image/svg+xml</dc:format><dc:type
           rdf:resource="http://purl.org/dc/dcmitype/StillImage" /></cc:Work></rdf:RDF></metadata><defs
     id="defs3081" /><sodipodi:namedview
     pagecolor="#ffffff"
     bordercolor="#666666"
     borderopacity="1"
     objecttolerance="10"
     gridtolerance="10"
     guidetolerance="10"
     inkscape:pageopacity="0"
     inkscape:pageshadow="2"
     inkscape:window-width="1920"
     inkscape:window-height="978"
     id="namedview3079"
     showgrid="false"
     inkscape:zoom="36.462022"
     inkscape:cx="10.126888"
     inkscape:cy="10.522798"
     inkscape:window-x="0"
     inkscape:window-y="31"
     inkscape:window-maximized="1"
     inkscape:current-layer="svg3069" /><g
     id="g3071"
     transform="matrix(0.04002593,0,0,0.04002593,0.49216054,0.49212051)"><path
       d="m 365.446,401.998 c 0,10.092 3.579,18.702 10.711,25.834 7.132,7.139 15.749,10.711 25.845,10.711 10.081,0 18.698,-3.572 25.83,-10.711 7.139,-7.132 10.711,-15.742 10.711,-25.834 0,-10.092 -3.568,-18.702 -10.711,-25.841 -7.132,-7.132 -15.749,-10.704 -25.83,-10.704 -10.096,0 -18.713,3.572 -25.845,10.704 -7.132,7.139 -10.711,15.749 -10.711,25.841 z"
       id="path3073"
       inkscape:connector-curvature="0"
       style="fill:#85c226" /><path
       d="M 469.658,78.51 C 466.04,74.893 461.76,73.084 456.81,73.084 H 113.918 c -0.193,-1.331 -0.621,-3.756 -1.287,-7.277 -0.666,-3.523 -1.188,-6.329 -1.569,-8.425 -0.383,-2.087 -1.093,-4.611 -2.142,-7.561 -1.047,-2.952 -2.284,-5.286 -3.711,-6.995 -1.425,-1.718 -3.328,-3.189 -5.708,-4.43 -2.378,-1.233 -5.092,-1.853 -8.136,-1.853 H 18.276 c -4.952,0 -9.234,1.812 -12.85,5.424 C 1.809,45.583 0,49.868 0,54.816 c 0,4.948 1.809,9.231 5.426,12.847 3.619,3.617 7.902,5.424 12.85,5.424 h 58.237 l 50.532,234.976 c -0.378,0.76 -2.329,4.373 -5.852,10.848 -3.521,6.475 -6.328,12.135 -8.42,16.988 -2.093,4.859 -3.14,8.616 -3.14,11.279 0,4.948 1.809,9.232 5.424,12.854 3.621,3.606 7.902,5.421 12.851,5.421 h 18.272 255.815 18.261 c 4.948,0 9.232,-1.814 12.847,-5.421 3.62,-3.621 5.427,-7.905 5.427,-12.854 0,-4.949 -1.807,-9.233 -5.427,-12.847 -3.614,-3.614 -7.898,-5.428 -12.847,-5.428 h -262.66 c 4.57,-9.138 6.854,-15.222 6.854,-18.268 0,-1.909 -0.238,-4.004 -0.715,-6.283 -0.477,-2.279 -1.047,-4.805 -1.713,-7.569 -0.667,-2.752 -1.093,-4.799 -1.283,-6.133 l 298.077,-34.831 c 4.753,-0.575 8.658,-2.614 11.703,-6.14 3.046,-3.518 4.565,-7.562 4.565,-12.133 V 91.363 c -0.002,-4.948 -1.806,-9.231 -5.426,-12.853 z"
       id="path3075"
       inkscape:connector-curvature="0"
       style="fill:#85c226" /><path
       d="m 109.632,401.998 c 0,10.092 3.567,18.702 10.706,25.834 7.141,7.139 15.75,10.711 25.841,10.711 10.085,0 18.699,-3.572 25.835,-10.711 7.139,-7.132 10.71,-15.742 10.71,-25.834 0,-10.092 -3.568,-18.702 -10.71,-25.841 -7.137,-7.132 -15.75,-10.704 -25.835,-10.704 -10.09,0 -18.704,3.572 -25.841,10.704 -7.135,7.139 -10.706,15.749 -10.706,25.841 z"
       id="path3077"
       inkscape:connector-curvature="0"
       style="fill:#85c226" /></g></svg>